<?xml version="1.0" encoding="utf-8"?>
<!DOCTYPE svg PUBLIC "-//W3C//DTD SVG 1.1//EN" "http://www.w3.org/Graphics/SVG/1.1/DTD/svg11.dtd">
<svg version="1.1" id="Logo" xmlns="http://www.w3.org/2000/svg" xmlns:xlink="http://www.w3.org/1999/xlink" x="0px" y="0px"
	 width="150px" height="150px" viewBox="-793.5 562.5 150 150" enable-background="new -793.5 562.5 150 150" xml:space="preserve">
<rect x="-781" y="575" width="125" height="125"/>
<g>
	<path fill="#FFFFFF" d="M-775.03,612.685h4.89v33.777h16.187v4.105h-21.076V612.685z"/>
	<path fill="#FFFFFF" d="M-724.828,636.742c0,10.059-6.967,14.443-13.543,14.443c-7.363,0-13.041-5.396-13.041-13.995
		c0-9.102,5.958-14.442,13.489-14.442C-730.109,622.748-724.828,628.423-724.828,636.742z M-746.41,637.021
		c0,5.958,3.43,10.457,8.263,10.457c4.721,0,8.263-4.443,8.263-10.567c0-4.607-2.304-10.456-8.15-10.456
		C-743.879,626.455-746.41,631.851-746.41,637.021z"/>
	<path fill="#FFFFFF" d="M-695.135,623.365c-0.114,1.969-0.227,4.16-0.227,7.474v15.793c0,6.242-1.235,10.063-3.876,12.42
		c-2.643,2.476-6.464,3.263-9.892,3.263c-3.261,0-6.858-0.787-9.05-2.247l1.236-3.766c1.798,1.121,4.61,2.132,7.981,2.132
		c5.059,0,8.768-2.64,8.768-9.495v-3.034h-0.112c-1.517,2.526-4.441,4.549-8.656,4.549c-6.743,0-11.578-5.729-11.578-13.263
		c0-9.217,6.016-14.442,12.253-14.442c4.721,0,7.306,2.471,8.487,4.718h0.112l0.224-4.101H-695.135z M-700.251,634.102
		c0-0.847-0.055-1.574-0.279-2.251c-0.899-2.865-3.318-5.227-6.915-5.227c-4.721,0-8.093,3.99-8.093,10.287
		c0,5.337,2.698,9.78,8.038,9.78c3.034,0,5.789-1.913,6.855-5.062c0.281-0.842,0.394-1.799,0.394-2.641V634.102z"/>
	<path fill="#FFFFFF" d="M-662.521,636.742c0,10.059-6.967,14.443-13.543,14.443c-7.363,0-13.041-5.396-13.041-13.995
		c0-9.102,5.958-14.442,13.489-14.442C-667.803,622.748-662.521,628.423-662.521,636.742z M-684.104,637.021
		c0,5.958,3.43,10.457,8.263,10.457c4.72,0,8.263-4.443,8.263-10.567c0-4.607-2.304-10.456-8.15-10.456
		C-681.573,626.455-684.104,631.851-684.104,637.021z"/>
</g>
</svg>
